# FreeCAD v0.19 build Arch module
# http://www.freecadweb.org
mtllib shelf_2.mtl
o Array
v 0.0 0.0 0.0
v 0.0 0.0 150.0
v 0.0 30.0 150.0
v 0.0 30.0 0.0
v 47.0 0.0 146.0
v 3.0 0.0 146.0
v 3.0 0.0 102.0
v 3.0 0.0 96.0
v 47.0 0.0 96.0
v 47.0 0.0 102.0
v 53.0 0.0 102.0
v 53.0 0.0 146.0
v 53.0 0.0 96.0
v 3.0 0.0 46.0
v 3.0 0.0 52.0
v 3.0 0.0 2.0
v 147.0 0.0 146.0
v 150.0 0.0 150.0
v 103.0 0.0 146.0
v 97.0 0.0 96.0
v 97.0 0.0 102.0
v 53.0 0.0 52.0
v 47.0 0.0 52.0
v 47.0 0.0 46.0
v 103.0 0.0 102.0
v 97.0 0.0 146.0
v 103.0 0.0 96.0
v 53.0 0.0 46.0
v 147.0 0.0 102.0
v 47.0 0.0 2.0
v 147.0 0.0 96.0
v 97.0 0.0 46.0
v 97.0 0.0 52.0
v 103.0 0.0 52.0
v 53.0 0.0 2.0
v 103.0 0.0 46.0
v 103.0 0.0 2.0
v 97.0 0.0 2.0
v 147.0 0.0 46.0
v 147.0 0.0 52.0
v 150.0 0.0 0.0
v 147.0 0.0 2.0
v 3.0 30.0 46.0
v 47.0 30.0 46.0
v 47.0 30.0 2.0
v 3.0 30.0 2.0
v 53.0 30.0 46.0
v 97.0 30.0 46.0
v 97.0 30.0 2.0
v 53.0 30.0 2.0
v 103.0 30.0 46.0
v 147.0 30.0 46.0
v 147.0 30.0 2.0
v 103.0 30.0 2.0
v 103.0 30.0 96.0
v 147.0 30.0 96.0
v 147.0 30.0 52.0
v 103.0 30.0 52.0
v 53.0 30.0 96.0
v 97.0 30.0 96.0
v 97.0 30.0 52.0
v 53.0 30.0 52.0
v 3.0 30.0 96.0
v 47.0 30.0 96.0
v 47.0 30.0 52.0
v 3.0 30.0 52.0
v 3.0 30.0 146.0
v 47.0 30.0 146.0
v 47.0 30.0 102.0
v 3.0 30.0 102.0
v 53.0 30.0 146.0
v 97.0 30.0 146.0
v 97.0 30.0 102.0
v 53.0 30.0 102.0
v 103.0 30.0 146.0
v 147.0 30.0 146.0
v 147.0 30.0 102.0
v 103.0 30.0 102.0
v 150.0 30.0 0.0
v 150.0 30.0 150.0
vn -1.0 0.0 0.0
vn -1.0 0.0 0.0
vn 0.0 -1.0 0.0
vn 0.0 -1.0 0.0
vn 0.0 -1.0 0.0
vn 0.0 -1.0 0.0
vn 0.0 -1.0 0.0
vn 0.0 -1.0 0.0
vn 0.0 -1.0 0.0
vn 0.0 -1.0 0.0
vn 0.0 -1.0 0.0
vn 0.0 -1.0 0.0
vn -0.0 -1.0 0.0
vn 0.0 -1.0 0.0
vn 0.0 -1.0 0.0
vn 0.0 -1.0 0.0
vn 0.0 -1.0 0.0
vn 0.0 -1.0 0.0
vn 0.0 -1.0 0.0
vn 0.0 -1.0 0.0
vn 0.0 -1.0 0.0
vn 0.0 -1.0 0.0
vn 0.0 -1.0 0.0
vn 0.0 -1.0 0.0
vn 0.0 -1.0 0.0
vn 0.0 -1.0 0.0
vn 0.0 -1.0 0.0
vn -0.0 -1.0 0.0
vn 0.0 -1.0 0.0
vn 0.0 -1.0 0.0
vn 0.0 -1.0 0.0
vn 0.0 -1.0 0.0
vn 0.0 -1.0 0.0
vn 0.0 -1.0 0.0
vn 0.0 -1.0 0.0
vn 0.0 -1.0 0.0
vn 0.0 -1.0 0.0
vn 0.0 -1.0 0.0
vn 0.0 -1.0 0.0
vn 0.0 -1.0 0.0
vn 0.0 -1.0 0.0
vn 0.0 -1.0 0.0
vn 0.0 -1.0 0.0
vn 0.0 -1.0 0.0
vn 0.0 -1.0 0.0
vn 0.0 -1.0 0.0
vn 0.0 -1.0 0.0
vn 0.0 -1.0 0.0
vn 0.0 -1.0 0.0
vn 0.0 -1.0 0.0
vn 0.0 -1.0 0.0
vn 0.0 -1.0 0.0
vn -0.0 -1.0 0.0
vn 0.0 -1.0 0.0
vn 0.0 -1.0 0.0
vn 0.0 -1.0 0.0
vn 0.0 -1.0 0.0
vn 0.0 -1.0 0.0
vn 0.0 0.0 -1.0
vn 0.0 0.0 -1.0
vn -1.0 0.0 0.0
vn -1.0 0.0 0.0
vn 0.0 0.0 1.0
vn 0.0 0.0 1.0
vn 1.0 0.0 0.0
vn 1.0 -0.0 0.0
vn 0.0 0.0 -1.0
vn 0.0 0.0 -1.0
vn -1.0 0.0 0.0
vn -1.0 0.0 0.0
vn 0.0 0.0 1.0
vn 0.0 0.0 1.0
vn 1.0 0.0 0.0
vn 1.0 -0.0 0.0
vn 0.0 0.0 -1.0
vn 0.0 0.0 -1.0
vn -1.0 0.0 0.0
vn -1.0 0.0 0.0
vn 0.0 0.0 1.0
vn 0.0 0.0 1.0
vn 1.0 0.0 0.0
vn 1.0 -0.0 0.0
vn 0.0 0.0 -1.0
vn 0.0 0.0 -1.0
vn -1.0 0.0 0.0
vn -1.0 0.0 0.0
vn 0.0 0.0 1.0
vn 0.0 0.0 1.0
vn 1.0 0.0 0.0
vn 1.0 -0.0 0.0
vn 0.0 0.0 -1.0
vn 0.0 0.0 -1.0
vn -1.0 0.0 0.0
vn -1.0 0.0 0.0
vn 0.0 0.0 1.0
vn 0.0 0.0 1.0
vn 1.0 0.0 0.0
vn 1.0 -0.0 0.0
vn 0.0 0.0 -1.0
vn 0.0 0.0 -1.0
vn -1.0 0.0 0.0
vn -1.0 0.0 0.0
vn 0.0 0.0 1.0
vn 0.0 0.0 1.0
vn 1.0 0.0 0.0
vn 1.0 -0.0 0.0
vn 0.0 0.0 -1.0
vn 0.0 0.0 -1.0
vn -1.0 0.0 0.0
vn -1.0 0.0 0.0
vn 0.0 0.0 1.0
vn 0.0 0.0 1.0
vn 1.0 0.0 0.0
vn 1.0 -0.0 0.0
vn 0.0 0.0 -1.0
vn 0.0 0.0 -1.0
vn -1.0 0.0 0.0
vn -1.0 0.0 0.0
vn 0.0 0.0 1.0
vn 0.0 0.0 1.0
vn 1.0 0.0 0.0
vn 1.0 -0.0 0.0
vn 0.0 0.0 -1.0
vn 0.0 0.0 -1.0
vn -1.0 0.0 0.0
vn -1.0 0.0 0.0
vn 0.0 0.0 1.0
vn 0.0 0.0 1.0
vn 1.0 0.0 0.0
vn 1.0 -0.0 0.0
vn 0.0 1.0 0.0
vn 0.0 1.0 0.0
vn 0.0 1.0 0.0
vn 0.0 1.0 0.0
vn 0.0 1.0 0.0
vn 0.0 1.0 0.0
vn 0.0 1.0 0.0
vn 0.0 1.0 0.0
vn 0.0 1.0 0.0
vn 0.0 1.0 0.0
vn 0.0 1.0 0.0
vn 0.0 1.0 0.0
vn 0.0 1.0 0.0
vn 0.0 1.0 0.0
vn 0.0 1.0 0.0
vn 0.0 1.0 0.0
vn 0.0 1.0 0.0
vn 0.0 1.0 0.0
vn 0.0 1.0 0.0
vn 0.0 1.0 0.0
vn 0.0 1.0 0.0
vn 0.0 1.0 0.0
vn 0.0 1.0 0.0
vn 0.0 1.0 0.0
vn 0.0 1.0 0.0
vn 0.0 1.0 0.0
vn 0.0 1.0 0.0
vn 0.0 1.0 0.0
vn 0.0 1.0 0.0
vn 0.0 1.0 0.0
vn 0.0 1.0 0.0
vn 0.0 1.0 0.0
vn 0.0 1.0 0.0
vn 0.0 1.0 0.0
vn 0.0 1.0 0.0
vn 0.0 1.0 0.0
vn 0.0 1.0 0.0
vn 0.0 1.0 0.0
vn 0.0 1.0 0.0
vn 0.0 1.0 0.0
vn 0.0 1.0 0.0
vn 0.0 1.0 0.0
vn 0.0 1.0 0.0
vn 0.0 1.0 0.0
vn -0.0 1.0 0.0
vn 0.0 1.0 0.0
vn 0.0 1.0 0.0
vn 0.0 1.0 0.0
vn 0.0 1.0 0.0
vn 0.0 1.0 0.0
vn 0.0 1.0 0.0
vn 0.0 1.0 0.0
vn 0.0 1.0 0.0
vn 0.0 1.0 0.0
vn 0.0 1.0 0.0
vn 0.0 1.0 0.0
vn 0.0 0.0 -1.0
vn 0.0 0.0 -1.0
vn 0.0 0.0 1.0
vn 0.0 0.0 1.0
vn 1.0 0.0 0.0
vn 1.0 -0.0 0.0
f 1//1 2//1 3//1 
f 1//2 3//2 4//2 
f 5//3 2//3 6//3 
f 7//4 6//4 2//4 
f 8//5 7//5 2//5 
f 9//6 10//6 7//6 
f 9//7 7//7 8//7 
f 11//8 5//8 10//8 
f 11//9 12//9 5//9 
f 13//10 10//10 9//10 
f 13//11 11//11 10//11 
f 1//12 14//12 15//12 
f 16//13 14//13 1//13 
f 17//14 18//14 19//14 
f 20//15 21//15 11//15 
f 20//16 11//16 13//16 
f 22//17 9//17 23//17 
f 22//18 13//18 9//18 
f 24//19 23//19 15//19 
f 24//20 15//20 14//20 
f 25//21 26//21 21//21 
f 25//22 19//22 26//22 
f 27//23 21//23 20//23 
f 27//24 25//24 21//24 
f 28//25 22//25 23//25 
f 28//26 23//26 24//26 
f 29//27 18//27 17//27 
f 30//28 16//28 1//28 
f 31//29 29//29 25//29 
f 31//30 25//30 27//30 
f 32//31 33//31 22//31 
f 32//32 22//32 28//32 
f 34//33 20//33 33//33 
f 34//34 27//34 20//34 
f 35//35 28//35 24//35 
f 35//36 24//36 30//36 
f 36//37 33//37 32//37 
f 36//38 34//38 33//38 
f 37//39 36//39 32//39 
f 37//40 32//40 38//40 
f 39//41 40//41 34//41 
f 39//42 34//42 36//42 
f 41//43 39//43 42//43 
f 41//44 42//44 37//44 
f 1//45 41//45 37//45 
f 1//46 37//46 38//46 
f 1//47 38//47 35//47 
f 1//48 35//48 30//48 
f 41//49 18//49 29//49 
f 41//50 29//50 31//50 
f 41//51 31//51 40//51 
f 41//52 40//52 39//52 
f 18//53 2//53 5//53 
f 18//54 5//54 12//54 
f 18//55 12//55 26//55 
f 18//56 26//56 19//56 
f 2//57 1//57 15//57 
f 2//58 15//58 8//58 
f 43//59 44//59 14//59 
f 14//60 44//60 24//60 
f 30//61 24//61 45//61 
f 45//62 24//62 44//62 
f 45//63 46//63 16//63 
f 45//64 16//64 30//64 
f 14//65 16//65 46//65 
f 14//66 46//66 43//66 
f 47//67 48//67 28//67 
f 28//68 48//68 32//68 
f 38//69 32//69 49//69 
f 49//70 32//70 48//70 
f 49//71 50//71 35//71 
f 49//72 35//72 38//72 
f 28//73 35//73 50//73 
f 28//74 50//74 47//74 
f 51//75 52//75 36//75 
f 36//76 52//76 39//76 
f 42//77 39//77 53//77 
f 53//78 39//78 52//78 
f 53//79 54//79 37//79 
f 53//80 37//80 42//80 
f 36//81 37//81 54//81 
f 36//82 54//82 51//82 
f 55//83 56//83 27//83 
f 27//84 56//84 31//84 
f 40//85 31//85 57//85 
f 57//86 31//86 56//86 
f 57//87 58//87 34//87 
f 57//88 34//88 40//88 
f 27//89 34//89 58//89 
f 27//90 58//90 55//90 
f 59//91 60//91 13//91 
f 13//92 60//92 20//92 
f 33//93 20//93 61//93 
f 61//94 20//94 60//94 
f 61//95 62//95 22//95 
f 61//96 22//96 33//96 
f 13//97 22//97 62//97 
f 13//98 62//98 59//98 
f 63//99 64//99 8//99 
f 8//100 64//100 9//100 
f 23//101 9//101 65//101 
f 65//102 9//102 64//102 
f 65//103 66//103 15//103 
f 65//104 15//104 23//104 
f 8//105 15//105 66//105 
f 8//106 66//106 63//106 
f 67//107 68//107 6//107 
f 6//108 68//108 5//108 
f 10//109 5//109 69//109 
f 69//110 5//110 68//110 
f 69//111 70//111 7//111 
f 69//112 7//112 10//112 
f 6//113 7//113 70//113 
f 6//114 70//114 67//114 
f 71//115 72//115 12//115 
f 12//116 72//116 26//116 
f 21//117 26//117 73//117 
f 73//118 26//118 72//118 
f 73//119 74//119 11//119 
f 73//120 11//120 21//120 
f 12//121 11//121 74//121 
f 12//122 74//122 71//122 
f 75//123 76//123 19//123 
f 19//124 76//124 17//124 
f 29//125 17//125 77//125 
f 77//126 17//126 76//126 
f 77//127 78//127 25//127 
f 77//128 25//128 29//128 
f 19//129 25//129 78//129 
f 19//130 78//130 75//130 
f 45//131 4//131 46//131 
f 43//132 46//132 4//132 
f 66//133 43//133 4//133 
f 65//134 44//134 43//134 
f 65//135 43//135 66//135 
f 47//136 45//136 44//136 
f 47//137 50//137 45//137 
f 62//138 44//138 65//138 
f 62//139 47//139 44//139 
f 69//140 64//140 63//140 
f 69//141 63//141 70//141 
f 59//142 65//142 64//142 
f 59//143 62//143 65//143 
f 61//144 48//144 47//144 
f 61//145 47//145 62//145 
f 51//146 49//146 48//146 
f 51//147 54//147 49//147 
f 3//148 67//148 70//148 
f 3//149 70//149 63//149 
f 79//150 54//150 53//150 
f 74//151 59//151 64//151 
f 74//152 64//152 69//152 
f 58//153 48//153 61//153 
f 58//154 51//154 48//154 
f 52//155 79//155 53//155 
f 68//156 67//156 3//156 
f 71//157 69//157 68//157 
f 71//158 74//158 69//158 
f 55//159 58//159 61//159 
f 55//160 61//160 60//160 
f 73//161 60//161 59//161 
f 73//162 59//162 74//162 
f 57//163 52//163 51//163 
f 57//164 51//164 58//164 
f 78//165 55//165 60//165 
f 78//166 60//166 73//166 
f 75//167 78//167 73//167 
f 75//168 73//168 72//168 
f 77//169 55//169 78//169 
f 77//170 56//170 55//170 
f 80//171 76//171 75//171 
f 80//172 77//172 76//172 
f 4//173 3//173 63//173 
f 4//174 63//174 66//174 
f 3//175 80//175 75//175 
f 3//176 75//176 72//176 
f 3//177 72//177 71//177 
f 3//178 71//178 68//178 
f 80//179 79//179 52//179 
f 80//180 52//180 57//180 
f 80//181 57//181 56//181 
f 80//182 56//182 77//182 
f 79//183 4//183 45//183 
f 79//184 45//184 50//184 
f 79//185 50//185 49//185 
f 79//186 49//186 54//186 
f 4//187 79//187 41//187 
f 4//188 41//188 1//188 
f 80//189 3//189 2//189 
f 80//190 2//190 18//190 
f 18//191 41//191 79//191 
f 18//192 79//192 80//192 
